{"glyphs":{"0":{"ha":960,"x_min":136,"x_max":960,"o":"m 960 -3 l 136 -3 l 136 745 l 960 745 l 960 -3 m 749 155 q 752 292 751 155 q 752 405 752 349 q 751 498 752 461 l 751 530 l 572 155 l 749 155 m 343 211 l 524 586 l 343 586 l 343 211 z "},"1":{"ha":492,"x_min":136,"x_max":492,"o":"m 492 -3 l 283 -3 l 283 586 l 136 586 l 136 745 l 492 745 l 492 -3 z "},"2":{"ha":960,"x_min":136,"x_max":960,"o":"m 960 -3 l 136 -3 l 136 460 l 751 460 l 751 586 l 136 586 l 136 745 l 960 745 l 960 281 l 343 281 l 343 155 l 960 155 l 960 -3 z "},"3":{"ha":960,"x_min":136,"x_max":960,"o":"m 960 -3 l 136 -3 l 136 155 l 751 155 l 751 281 l 136 281 l 136 460 l 751 460 l 751 586 l 136 586 l 136 745 l 960 745 l 960 -3 z "},"4":{"ha":960,"x_min":136,"x_max":960,"o":"m 960 -3 l 751 -3 l 751 281 l 136 281 l 136 745 l 343 745 l 343 460 l 751 460 l 751 745 l 960 745 l 960 -3 z "},"5":{"ha":960,"x_min":136,"x_max":960,"o":"m 960 -3 l 136 -3 l 136 155 l 752 155 l 752 281 l 136 281 l 136 745 l 960 745 l 960 586 l 344 586 l 344 460 l 960 460 l 960 -3 z "},"6":{"ha":960,"x_min":136,"x_max":960,"o":"m 960 -3 l 136 -3 l 136 745 l 960 745 l 960 586 l 344 586 l 344 460 l 960 460 l 960 -3 m 752 155 l 752 281 l 344 281 l 344 155 l 752 155 z "},"7":{"ha":960,"x_min":136,"x_max":960,"o":"m 136 751 l 136 751 q 960 751 547 751 l 960 2 l 751 2 q 751 86 751 44 q 751 171 751 128 q 751 255 751 213 q 751 339 751 297 q 751 423 751 381 q 751 508 751 465 q 751 592 751 550 l 749 592 q 340 592 545 592 q 136 592 238 592 l 136 751 z "},"8":{"ha":960,"x_min":136,"x_max":960,"o":"m 960 -3 l 136 -3 l 136 745 l 960 745 l 960 -3 m 752 155 l 752 281 l 344 281 l 344 155 l 752 155 m 752 460 l 752 586 l 344 586 l 344 460 l 752 460 z "},"9":{"ha":960,"x_min":136,"x_max":960,"o":"m 960 -3 l 136 -3 l 136 155 l 752 155 l 752 281 l 136 281 l 136 745 l 960 745 l 960 -3 m 752 460 l 752 586 l 344 586 l 344 460 l 752 460 z "},"\u0000":{"ha":694,"x_min":0,"x_max":0,"o":""}," ":{"ha":345,"x_min":0,"x_max":0,"o":""},"!":{"ha":389,"x_min":136,"x_max":389,"o":"m 355 117 l 159 197 l 136 745 l 389 745 l 355 117 m 357 -79 l 169 -79 l 169 73 l 357 73 l 357 -79 z "},"\"":{"ha":499,"x_min":136,"x_max":499,"o":"m 241 587 l 136 587 l 136 745 l 300 745 l 300 648 l 241 587 m 441 587 l 335 587 l 335 745 l 499 745 l 499 648 l 441 587 z "},"#":{"ha":1223,"x_min":136,"x_max":1223,"o":"m 855 -3 l 602 -3 l 651 127 l 474 127 l 424 -3 l 170 -3 l 220 127 l 136 127 l 136 319 l 294 319 l 334 422 l 136 422 l 136 615 l 408 615 l 448 720 l 757 865 l 661 615 l 839 615 l 879 720 l 1188 865 l 1093 615 l 1223 615 l 1223 422 l 1019 422 l 979 319 l 1223 319 l 1223 127 l 905 127 l 855 -3 m 725 319 l 765 422 l 587 422 l 548 319 l 725 319 z "},"$":{"ha":1141,"x_min":136,"x_max":1141,"o":"m 766 -169 l 512 -169 l 519 -4 l 136 -4 l 213 159 l 605 159 q 810 202 727 159 q 895 294 880 239 l 139 294 q 137 353 139 323 q 136 411 136 382 q 276 646 136 551 q 519 734 378 715 l 512 905 l 766 905 l 757 741 l 1141 741 l 1065 577 l 672 577 q 468 534 550 577 q 385 450 402 500 l 1141 450 q 1125 263 1141 333 q 756 3 1074 47 l 766 -169 z "},"%":{"ha":968,"x_min":136,"x_max":968,"o":"m 492 -3 l 252 -3 l 611 745 l 851 745 l 492 -3 m 295 508 q 182 543 229 508 q 136 627 136 577 q 154 683 136 658 l 241 683 l 241 739 q 295 745 266 745 q 407 711 360 745 q 454 627 454 676 q 407 543 454 577 q 295 508 360 508 m 295 557 q 358 577 332 557 q 385 627 385 598 q 358 675 385 654 q 295 696 332 696 q 231 675 258 696 q 204 627 204 654 q 231 577 204 598 q 295 557 258 557 m 808 -3 q 696 31 743 -3 q 650 115 650 65 q 696 199 650 165 q 808 233 743 233 q 921 199 875 233 q 968 115 968 165 q 949 59 968 84 l 862 59 l 862 3 q 808 -3 838 -3 m 808 45 q 872 66 846 45 q 899 115 899 87 q 872 164 899 143 q 808 185 846 185 q 745 164 772 185 q 718 115 718 143 q 745 66 718 87 q 808 45 772 45 z "},"&":{"ha":1239,"x_min":136,"x_max":1239,"o":"m 1141 -3 l 496 -3 q 238 59 341 -3 q 136 221 136 121 q 298 398 136 345 q 196 538 196 448 q 292 689 196 632 q 535 745 388 745 l 1141 745 l 1141 586 l 558 586 q 476 566 503 586 q 449 514 449 545 q 558 451 449 451 l 671 451 l 671 301 l 518 301 q 427 281 466 301 q 388 228 388 260 q 427 175 388 195 q 518 155 466 155 l 888 155 l 888 451 l 1239 451 l 1239 301 l 1141 301 l 1141 -3 z "},"'":{"ha":357,"x_min":136,"x_max":357,"o":"m 334 587 l 228 587 l 136 745 l 300 745 l 357 648 l 334 587 z "},"(":{"ha":547,"x_min":136,"x_max":547,"o":"m 494 -125 l 237 -125 q 136 346 136 90 q 264 871 136 637 l 547 871 q 392 648 450 785 q 334 346 334 511 q 377 83 334 205 q 494 -125 420 -39 z "},")":{"ha":547,"x_min":136,"x_max":547,"o":"m 446 -125 l 189 -125 q 306 83 263 -39 q 349 346 349 205 q 291 648 349 511 q 136 871 233 785 l 419 871 q 547 346 547 637 q 446 -125 547 90 z "},"*":{"ha":631,"x_min":136,"x_max":631,"o":"m 459 492 l 383 575 l 308 492 l 178 622 l 244 684 l 136 736 l 208 873 l 300 819 l 298 905 l 469 905 l 466 819 l 559 873 l 631 736 l 522 684 l 589 622 l 459 492 z "},"+":{"ha":917,"x_min":136,"x_max":917,"o":"m 626 35 l 427 35 l 427 275 l 136 275 l 136 477 l 427 477 l 427 716 l 626 716 l 626 477 l 917 477 l 917 275 l 626 275 l 626 35 z "},",":{"ha":351,"x_min":136,"x_max":351,"o":"m 338 -198 l 142 -118 l 136 39 l 351 39 l 338 -198 z "},"-":{"ha":693,"x_min":136,"x_max":693,"o":"m 693 301 l 136 301 l 136 451 l 693 451 l 693 301 z "},".":{"ha":279,"x_min":90,"x_max":281,"o":"m 90 210 l 90 210 l 281 210 l 281 -2 l 90 -2 l 90 210 z "},"/":{"ha":750,"x_min":136,"x_max":750,"o":"m 391 -3 l 136 -3 l 495 745 l 750 745 l 391 -3 z "},":":{"ha":279,"x_min":136,"x_max":279,"o":"m 207 435 q 157 456 178 435 q 136 507 136 477 q 157 557 136 536 q 207 578 178 578 q 258 557 237 578 q 279 507 279 536 q 258 456 279 477 q 207 435 237 435 m 207 163 q 157 184 178 163 q 136 235 136 205 q 157 285 136 264 q 207 306 178 306 q 258 285 237 306 q 279 235 279 264 q 258 184 279 205 q 207 163 237 163 z "},";":{"ha":281,"x_min":136,"x_max":281,"o":"m 208 435 q 158 456 179 435 q 137 507 137 477 q 158 557 137 536 q 208 578 179 578 q 259 557 238 578 q 280 507 280 536 q 259 456 280 477 q 208 435 238 435 m 273 122 l 140 176 l 136 281 l 281 281 l 273 122 z "},"<":{"ha":917,"x_min":136,"x_max":917,"o":"m 917 -3 l 136 274 l 136 477 l 917 755 l 917 552 l 420 376 l 917 199 l 917 -3 z "},"=":{"ha":800,"x_min":136,"x_max":800,"o":"m 800 432 l 136 432 l 136 604 l 800 604 l 800 432 m 800 147 l 136 147 l 136 319 l 800 319 l 800 147 z "},">":{"ha":917,"x_min":136,"x_max":917,"o":"m 136 -3 l 136 199 l 633 376 l 136 552 l 136 755 l 917 477 l 917 274 l 136 -3 z "},"?":{"ha":960,"x_min":136,"x_max":960,"o":"m 344 226 l 136 226 l 136 460 l 752 460 l 752 586 l 136 586 l 136 745 l 960 745 l 960 281 l 344 281 l 344 226 m 344 -3 l 136 -3 l 136 188 l 344 188 l 344 -3 z "},"@":{"ha":960,"x_min":136,"x_max":960,"o":"m 960 -3 l 136 -3 l 136 745 l 960 745 l 960 -3 m 842 77 l 842 198 l 357 198 l 357 412 l 642 412 l 642 470 l 357 470 l 357 543 l 737 543 l 737 271 l 842 271 l 842 665 l 253 665 l 253 77 l 842 77 m 642 271 l 642 330 l 453 330 l 453 271 l 642 271 z "},"A":{"ha":1141,"x_min":136,"x_max":1141,"o":"m 1141 0 l 888 0 l 638 431 l 389 0 l 136 0 l 565 744 l 711 744 l 1141 0 z "},"B":{"ha":1141,"x_min":136,"x_max":1141,"o":"m 781 0 l 136 0 l 136 454 l 719 454 q 828 517 828 454 q 801 569 828 549 q 719 589 773 589 l 136 589 l 136 748 l 741 748 q 985 692 888 748 q 1081 541 1081 635 q 979 401 1081 451 q 1141 224 1141 348 q 1038 62 1141 123 q 781 0 935 0 m 759 159 q 849 178 810 159 q 888 231 888 198 q 849 284 888 264 q 759 304 810 304 l 389 304 l 389 159 l 759 159 z "},"C":{"ha":1141,"x_min":136,"x_max":1141,"o":"m 1141 0 l 696 0 q 299 105 462 0 q 136 374 136 210 q 299 646 136 540 q 696 748 458 748 l 1141 748 l 1141 589 l 696 589 q 462 530 557 589 q 368 374 368 470 q 462 218 368 278 q 696 159 557 159 l 1141 159 l 1141 0 z "},"D":{"ha":1141,"x_min":136,"x_max":1141,"o":"m 581 0 l 136 0 l 136 454 l 389 454 l 389 159 l 581 159 q 814 218 720 159 q 909 374 909 278 q 814 530 909 470 q 581 589 720 589 l 136 589 l 136 748 l 581 748 q 977 646 819 748 q 1141 374 1141 540 q 978 105 1141 210 q 581 0 815 0 z "},"E":{"ha":1141,"x_min":136,"x_max":1141,"o":"m 1141 0 l 136 0 l 136 463 l 924 463 l 924 304 l 389 304 l 389 159 l 1141 159 l 1141 0 m 1141 589 l 136 589 l 136 748 l 1141 748 l 1141 589 z "},"F":{"ha":1141,"x_min":136,"x_max":1141,"o":"m 389 0 l 136 0 l 136 463 l 924 463 l 924 304 l 389 304 l 389 0 m 1141 589 l 136 589 l 136 748 l 1141 748 l 1141 589 z "},"G":{"ha":1142,"x_min":136,"x_max":1142,"o":"m 1142 589 l 229 589 q 300 646 259 619 q 696 748 459 748 l 1142 748 l 1142 589 m 1142 0 l 696 0 q 299 105 463 0 q 136 374 136 210 q 149 463 136 421 l 393 463 q 368 374 368 423 q 463 218 368 278 q 696 159 557 159 l 888 159 l 888 304 l 682 304 l 682 463 l 1142 463 l 1142 0 z "},"H":{"ha":1141,"x_min":136,"x_max":1141,"o":"m 1141 0 l 888 0 l 888 304 l 538 304 l 393 458 l 888 458 l 888 604 l 1141 748 l 1141 0 m 389 0 l 136 0 l 136 604 l 389 748 l 389 0 z "},"I":{"ha":389,"x_min":136,"x_max":389,"o":"m 389 0 l 136 0 l 136 604 l 389 748 l 389 0 z "},"J":{"ha":831,"x_min":136,"x_max":831,"o":"m 349 -1 l 136 -1 l 136 163 l 306 163 q 510 205 428 163 q 595 297 581 241 l 595 604 l 831 748 l 831 297 q 715 98 810 165 q 349 -1 562 -1 z "},"K":{"ha":1141,"x_min":136,"x_max":1141,"o":"m 1141 -1 l 812 -1 l 487 304 l 391 389 l 391 -1 l 386 -1 l 386 0 l 136 0 l 136 604 l 386 745 l 386 748 l 391 748 l 391 437 l 804 748 l 1133 748 l 677 416 l 1141 -1 z "},"L":{"ha":1141,"x_min":136,"x_max":1141,"o":"m 1141 0 l 136 0 l 136 604 l 391 749 l 391 159 q 766 160 556 159 l 1141 161 l 1141 0 z "},"M":{"ha":1141,"x_min":136,"x_max":1141,"o":"m 1141 0 l 887 0 l 887 355 l 639 186 l 136 527 l 136 748 l 639 408 l 1141 748 l 1141 0 m 391 0 l 136 0 l 136 427 l 391 255 l 391 0 z "},"N":{"ha":1141,"x_min":136,"x_max":1141,"o":"m 1141 0 l 890 0 q 888 748 888 242 l 1141 604 l 1141 0 m 389 0 l 136 0 l 136 748 l 808 292 l 808 70 l 389 355 l 389 0 z "},"O":{"ha":1141,"x_min":136,"x_max":1141,"o":"m 639 -1 q 283 108 430 -1 q 136 374 136 217 q 193 551 136 472 l 469 551 l 469 728 q 639 749 548 749 q 994 640 846 749 q 1141 374 1141 532 q 994 108 1141 217 q 639 -1 846 -1 m 639 153 q 840 219 755 153 q 924 374 924 285 q 840 529 924 463 q 639 595 755 595 q 437 529 522 595 q 353 374 353 463 q 437 219 353 285 q 639 153 522 153 z "},"P":{"ha":1141,"x_min":136,"x_max":1141,"o":"m 389 -1 l 136 -1 l 136 444 l 389 589 l 136 589 l 136 748 l 705 748 q 1018 676 895 748 q 1141 487 1141 604 q 1020 294 1141 357 q 735 231 924 243 q 389 225 648 225 l 389 -1 m 688 384 q 823 410 770 384 q 877 487 877 437 q 821 564 877 537 q 688 589 772 589 l 389 589 l 389 384 l 688 384 z "},"Q":{"ha":1142,"x_min":136,"x_max":1142,"o":"m 743 -153 l 534 -51 l 534 -7 q 283 98 392 14 q 136 374 136 210 q 283 650 136 537 q 639 763 430 763 q 994 650 846 763 q 1142 374 1142 537 q 994 98 1142 210 q 743 -7 884 14 l 743 -153 m 743 159 q 840 213 796 177 q 924 374 924 281 q 840 535 924 467 q 639 604 756 604 q 437 535 522 604 q 353 374 353 467 q 437 213 353 281 q 534 159 481 177 l 534 300 l 743 198 l 743 159 z "},"R":{"ha":1141,"x_min":136,"x_max":1141,"o":"m 1141 -1 l 824 -1 l 597 225 l 389 225 l 389 -1 l 136 -1 l 136 444 l 389 589 l 389 385 l 666 385 q 796 411 745 385 q 846 487 846 437 q 796 564 846 538 q 666 590 745 590 l 136 590 l 136 749 l 682 749 q 982 676 864 749 q 1100 487 1100 604 q 1033 353 1100 414 q 859 264 966 292 l 1141 -1 z "},"S":{"ha":1141,"x_min":136,"x_max":1141,"o":"m 648 -1 l 136 -1 l 213 163 l 605 163 q 810 205 727 163 q 895 297 880 241 l 139 297 q 137 356 139 327 q 136 414 136 385 q 276 649 136 554 q 629 744 416 744 l 1141 744 l 1065 580 l 673 580 q 468 537 550 580 q 385 453 402 504 l 1141 453 q 1125 267 1141 336 q 1015 98 1099 157 q 648 -1 861 -1 z "},"T":{"ha":1142,"x_min":136,"x_max":1142,"o":"m 766 0 l 512 0 l 512 586 l 136 586 l 210 744 l 1142 744 l 1067 586 l 766 586 l 766 0 z "},"U":{"ha":1141,"x_min":136,"x_max":1141,"o":"m 643 0 l 635 0 q 280 92 425 0 q 136 323 136 184 l 136 618 l 358 745 l 386 763 l 386 761 l 389 763 l 389 314 q 477 212 408 246 q 635 178 547 178 l 643 178 q 800 212 730 178 q 888 314 870 246 l 888 763 l 892 761 l 892 763 q 1141 618 920 745 l 1141 323 q 998 92 1141 184 q 643 0 854 1 z "},"V":{"ha":1141,"x_min":136,"x_max":1141,"o":"m 712 0 l 566 0 l 136 744 l 389 744 l 639 313 l 888 744 l 1141 744 l 712 0 z "},"W":{"ha":1576,"x_min":136,"x_max":1576,"o":"m 1145 0 l 998 0 l 856 245 l 714 0 l 567 0 l 513 93 l 728 465 l 891 747 l 1145 747 l 983 465 l 1071 313 l 1321 747 l 1576 747 l 1145 0 m 386 313 l 136 747 l 391 747 l 513 534 l 386 313 z "},"X":{"ha":1141,"x_min":136,"x_max":1141,"o":"m 408 465 l 136 748 l 441 748 l 558 620 l 408 465 m 1141 0 l 837 0 l 638 225 l 427 0 l 136 0 l 850 748 l 1141 748 l 786 374 l 1141 0 z "},"Y":{"ha":1141,"x_min":136,"x_max":1141,"o":"m 766 0 l 512 0 l 512 336 l 682 536 l 867 748 l 1141 748 l 766 338 l 766 0 m 428 429 l 136 748 l 410 748 l 557 579 l 428 429 z "},"Z":{"ha":1142,"x_min":136,"x_max":1142,"o":"m 989 590 l 187 590 l 187 748 l 1142 748 l 989 590 m 1112 0 l 136 0 l 580 466 l 868 466 l 570 159 l 1112 159 l 1112 0 z "},"[":{"ha":492,"x_min":136,"x_max":492,"o":"m 492 -163 l 136 -163 l 136 908 l 492 908 l 492 749 l 343 749 l 343 -4 l 492 -4 l 492 -163 z "},"\\":{"ha":750,"x_min":136,"x_max":750,"o":"m 750 -3 l 495 -3 l 136 745 l 391 745 l 750 -3 z "},"]":{"ha":492,"x_min":136,"x_max":492,"o":"m 492 -163 l 136 -163 l 136 -4 l 283 -4 l 283 749 l 136 749 l 136 908 l 492 908 l 492 -163 z "},"^":{"ha":894,"x_min":136,"x_max":894,"o":"m 894 363 l 691 363 l 515 620 l 338 363 l 136 363 l 413 766 l 616 766 l 894 363 z "},"_":{"ha":1020,"x_min":136,"x_max":1020,"o":"m 1020 -114 l 136 -114 l 136 -3 l 1020 -3 l 1020 -114 z "},"`":{"ha":475,"x_min":136,"x_max":475,"o":"m 475 569 l 136 629 l 136 766 l 475 706 l 475 569 z "},"a":{"ha":1141,"x_min":136,"x_max":1141,"o":"m 1141 0 l 888 0 l 638 431 l 389 0 l 136 0 l 565 744 l 711 744 l 1141 0 z "},"b":{"ha":1141,"x_min":136,"x_max":1141,"o":"m 781 0 l 136 0 l 136 454 l 719 454 q 828 517 828 454 q 801 569 828 549 q 719 589 773 589 l 136 589 l 136 748 l 741 748 q 985 692 888 748 q 1081 541 1081 635 q 979 401 1081 451 q 1141 224 1141 348 q 1038 62 1141 123 q 781 0 935 0 m 759 159 q 849 178 810 159 q 888 231 888 198 q 849 284 888 264 q 759 304 810 304 l 389 304 l 389 159 l 759 159 z "},"c":{"ha":1141,"x_min":136,"x_max":1141,"o":"m 1141 0 l 696 0 q 299 105 462 0 q 136 374 136 210 q 299 646 136 540 q 696 748 458 748 l 1141 748 l 1141 589 l 696 589 q 462 530 557 589 q 368 374 368 470 q 462 218 368 278 q 696 159 557 159 l 1141 159 l 1141 0 z "},"d":{"ha":1141,"x_min":136,"x_max":1141,"o":"m 581 0 l 136 0 l 136 454 l 389 454 l 389 159 l 581 159 q 814 218 720 159 q 909 374 909 278 q 814 530 909 470 q 581 589 720 589 l 136 589 l 136 748 l 581 748 q 977 646 819 748 q 1141 374 1141 540 q 978 105 1141 210 q 581 0 815 0 z "},"e":{"ha":1141,"x_min":136,"x_max":1141,"o":"m 1141 0 l 136 0 l 136 463 l 924 463 l 924 304 l 389 304 l 389 159 l 1141 159 l 1141 0 m 1141 589 l 136 589 l 136 748 l 1141 748 l 1141 589 z "},"f":{"ha":1141,"x_min":136,"x_max":1141,"o":"m 389 0 l 136 0 l 136 463 l 924 463 l 924 304 l 389 304 l 389 0 m 1141 589 l 136 589 l 136 748 l 1141 748 l 1141 589 z "},"g":{"ha":1142,"x_min":136,"x_max":1142,"o":"m 1142 589 l 229 589 q 300 646 259 619 q 696 748 459 748 l 1142 748 l 1142 589 m 1142 0 l 696 0 q 299 105 463 0 q 136 374 136 210 q 149 463 136 421 l 393 463 q 368 374 368 423 q 463 218 368 278 q 696 159 557 159 l 888 159 l 888 304 l 682 304 l 682 463 l 1142 463 l 1142 0 z "},"h":{"ha":1141,"x_min":136,"x_max":1141,"o":"m 1141 0 l 888 0 l 888 304 l 538 304 l 393 458 l 888 458 l 888 604 l 1141 748 l 1141 0 m 389 0 l 136 0 l 136 604 l 389 748 l 389 0 z "},"i":{"ha":389,"x_min":136,"x_max":389,"o":"m 389 0 l 136 0 l 136 604 l 389 748 l 389 0 z "},"j":{"ha":831,"x_min":136,"x_max":831,"o":"m 349 -1 l 136 -1 l 136 163 l 306 163 q 510 205 428 163 q 595 297 581 241 l 595 604 l 831 748 l 831 297 q 715 98 810 165 q 349 -1 562 -1 z "},"k":{"ha":1141,"x_min":136,"x_max":1141,"o":"m 1141 -1 l 812 -1 l 487 304 l 391 389 l 391 -1 l 386 -1 l 386 0 l 136 0 l 136 604 l 386 745 l 386 748 l 391 748 l 391 437 l 804 748 l 1133 748 l 677 416 l 1141 -1 z "},"l":{"ha":1141,"x_min":136,"x_max":1141,"o":"m 1141 0 l 136 0 l 136 604 l 391 749 l 391 159 q 766 160 556 159 l 1141 161 l 1141 0 z "},"m":{"ha":1141,"x_min":136,"x_max":1141,"o":"m 1141 0 l 887 0 l 887 355 l 639 186 l 136 527 l 136 748 l 639 408 l 1141 748 l 1141 0 m 391 0 l 136 0 l 136 427 l 391 255 l 391 0 z "},"n":{"ha":1141,"x_min":136,"x_max":1141,"o":"m 1141 0 l 890 0 q 888 748 888 242 l 1141 604 l 1141 0 m 389 0 l 136 0 l 136 748 l 808 292 l 808 70 l 389 355 l 389 0 z "},"o":{"ha":1141,"x_min":136,"x_max":1141,"o":"m 639 -1 q 283 108 430 -1 q 136 374 136 217 q 193 551 136 472 l 469 551 l 469 728 q 639 749 548 749 q 994 640 846 749 q 1141 374 1141 532 q 994 108 1141 217 q 639 -1 846 -1 m 639 153 q 840 219 755 153 q 924 374 924 285 q 840 529 924 463 q 639 595 755 595 q 437 529 522 595 q 353 374 353 463 q 437 219 353 285 q 639 153 522 153 z "},"p":{"ha":1141,"x_min":136,"x_max":1141,"o":"m 389 -1 l 136 -1 l 136 444 l 389 589 l 136 589 l 136 748 l 705 748 q 1018 676 895 748 q 1141 487 1141 604 q 1020 294 1141 357 q 735 231 924 243 q 389 225 648 225 l 389 -1 m 688 384 q 823 410 770 384 q 877 487 877 437 q 821 564 877 537 q 688 589 772 589 l 389 589 l 389 384 l 688 384 z "},"q":{"ha":1142,"x_min":136,"x_max":1142,"o":"m 743 -153 l 534 -51 l 534 -7 q 283 98 392 14 q 136 374 136 210 q 283 650 136 537 q 639 763 430 763 q 994 650 846 763 q 1142 374 1142 537 q 994 98 1142 210 q 743 -7 884 14 l 743 -153 m 743 159 q 840 213 796 177 q 924 374 924 281 q 840 535 924 467 q 639 604 756 604 q 437 535 522 604 q 353 374 353 467 q 437 213 353 281 q 534 159 481 177 l 534 300 l 743 198 l 743 159 z "},"r":{"ha":1141,"x_min":136,"x_max":1141,"o":"m 1141 -1 l 824 -1 l 597 225 l 389 225 l 389 -1 l 136 -1 l 136 444 l 389 589 l 389 385 l 666 385 q 796 411 745 385 q 846 487 846 437 q 796 564 846 538 q 666 590 745 590 l 136 590 l 136 749 l 682 749 q 982 676 864 749 q 1100 487 1100 604 q 1033 353 1100 414 q 859 264 966 292 l 1141 -1 z "},"s":{"ha":1141,"x_min":136,"x_max":1141,"o":"m 648 -1 l 136 -1 l 213 163 l 605 163 q 810 205 727 163 q 895 297 880 241 l 139 297 q 137 356 139 327 q 136 414 136 385 q 276 649 136 554 q 629 744 416 744 l 1141 744 l 1065 580 l 673 580 q 468 537 550 580 q 385 453 402 504 l 1141 453 q 1125 267 1141 336 q 1015 98 1099 157 q 648 -1 861 -1 z "},"t":{"ha":1142,"x_min":136,"x_max":1142,"o":"m 766 0 l 512 0 l 512 586 l 136 586 l 210 744 l 1142 744 l 1067 586 l 766 586 l 766 0 z "},"u":{"ha":1141,"x_min":136,"x_max":1141,"o":"m 643 0 l 635 0 q 280 92 425 0 q 136 323 136 184 l 136 618 l 358 745 l 386 763 l 386 761 l 389 763 l 389 314 q 477 212 408 246 q 635 178 547 178 l 643 178 q 800 212 730 178 q 888 314 870 246 l 888 763 l 892 761 l 892 763 q 1141 618 920 745 l 1141 323 q 998 92 1141 184 q 643 0 854 1 z "},"v":{"ha":1141,"x_min":136,"x_max":1141,"o":"m 712 0 l 566 0 l 136 744 l 389 744 l 639 313 l 888 744 l 1141 744 l 712 0 z "},"w":{"ha":1576,"x_min":136,"x_max":1576,"o":"m 1145 0 l 998 0 l 856 245 l 714 0 l 567 0 l 513 93 l 728 465 l 891 747 l 1145 747 l 983 465 l 1071 313 l 1321 747 l 1576 747 l 1145 0 m 386 313 l 136 747 l 391 747 l 513 534 l 386 313 z "},"x":{"ha":1141,"x_min":136,"x_max":1141,"o":"m 408 465 l 136 748 l 441 748 l 558 620 l 408 465 m 1141 0 l 837 0 l 638 225 l 427 0 l 136 0 l 850 748 l 1141 748 l 786 374 l 1141 0 z "},"y":{"ha":1141,"x_min":136,"x_max":1141,"o":"m 766 0 l 512 0 l 512 336 l 682 536 l 867 748 l 1141 748 l 766 338 l 766 0 m 428 429 l 136 748 l 410 748 l 557 579 l 428 429 z "},"z":{"ha":1142,"x_min":136,"x_max":1142,"o":"m 989 590 l 187 590 l 187 748 l 1142 748 l 989 590 m 1112 0 l 136 0 l 580 466 l 868 466 l 570 159 l 1112 159 l 1112 0 z "},"{":{"ha":640,"x_min":136,"x_max":640,"o":"m 640 -163 l 284 -163 l 283 293 l 136 293 l 136 452 l 283 452 l 283 747 l 284 747 l 284 903 l 640 903 l 640 744 l 492 744 l 492 -4 l 640 -4 l 640 -163 z "},"|":{"ha":390,"x_min":136,"x_max":390,"o":"m 390 -3 l 136 -3 l 136 745 l 389 745 l 390 -3 z "},"}":{"ha":640,"x_min":136,"x_max":640,"o":"m 492 -163 l 136 -163 l 136 -4 l 283 -4 l 283 744 l 136 744 l 136 903 l 492 903 l 492 452 l 640 452 l 640 293 l 492 293 l 492 -163 z "},"~":{"ha":810,"x_min":136,"x_max":810,"o":"m 137 245 l 136 246 l 136 453 q 291 492 197 492 q 488 452 358 492 q 659 411 618 411 q 810 495 734 411 l 810 297 q 656 250 739 250 q 470 290 588 250 q 282 331 351 331 q 137 245 196 331 z "},"¡":{"ha":456,"x_min":0,"x_max":0,"o":""},"¢":{"ha":772,"x_min":0,"x_max":0,"o":""},"£":{"ha":688,"x_min":0,"x_max":0,"o":""},"¤":{"ha":688,"x_min":0,"x_max":0,"o":""},"¥":{"ha":688,"x_min":0,"x_max":0,"o":""},"¦":{"ha":688,"x_min":0,"x_max":0,"o":""},"§":{"ha":688,"x_min":0,"x_max":0,"o":""},"¨":{"ha":694,"x_min":0,"x_max":0,"o":""},"©":{"ha":1135,"x_min":0,"x_max":0,"o":""},"ª":{"ha":439,"x_min":0,"x_max":0,"o":""},"«":{"ha":640,"x_min":0,"x_max":0,"o":"z "},"¬":{"ha":688,"x_min":0,"x_max":0,"o":""},"®":{"ha":1135,"x_min":0,"x_max":0,"o":""},"¯":{"ha":694,"x_min":0,"x_max":0,"o":""},"°":{"ha":457,"x_min":0,"x_max":0,"o":""},"±":{"ha":917,"x_min":136,"x_max":917,"o":"m 626 35 l 427 35 l 427 275 l 136 275 l 136 477 l 427 477 l 427 716 l 626 716 l 626 477 l 917 477 l 917 275 l 626 275 l 626 35 z "},"²":{"ha":688,"x_min":0,"x_max":0,"o":""},"³":{"ha":688,"x_min":0,"x_max":0,"o":""},"´":{"ha":694,"x_min":0,"x_max":0,"o":""},"µ":{"ha":800,"x_min":0,"x_max":0,"o":""},"¶":{"ha":694,"x_min":0,"x_max":0,"o":""},"·":{"ha":345,"x_min":0,"x_max":0,"o":""},"¸":{"ha":694,"x_min":0,"x_max":0,"o":""},"¹":{"ha":688,"x_min":0,"x_max":0,"o":""},"º":{"ha":1032,"x_min":0,"x_max":0,"o":""},"»":{"ha":640,"x_min":0,"x_max":0,"o":"z "},"¼":{"ha":1158,"x_min":0,"x_max":0,"o":""},"½":{"ha":1607,"x_min":0,"x_max":0,"o":""},"¾":{"ha":1158,"x_min":0,"x_max":0,"o":""},"¿":{"ha":507,"x_min":0,"x_max":0,"o":""},"À":{"ha":1044,"x_min":0,"x_max":0,"o":""},"Á":{"ha":1044,"x_min":0,"x_max":0,"o":""},"Â":{"ha":1044,"x_min":0,"x_max":0,"o":""},"Ã":{"ha":1044,"x_min":0,"x_max":0,"o":""},"Ä":{"ha":1044,"x_min":0,"x_max":0,"o":""},"Å":{"ha":1044,"x_min":0,"x_max":0,"o":""},"Æ":{"ha":1417,"x_min":0,"x_max":0,"o":""},"Ç":{"ha":949,"x_min":0,"x_max":0,"o":""},"È":{"ha":781,"x_min":0,"x_max":0,"o":""},"É":{"ha":781,"x_min":0,"x_max":0,"o":""},"Ê":{"ha":781,"x_min":0,"x_max":0,"o":""},"Ë":{"ha":781,"x_min":0,"x_max":0,"o":""},"Ì":{"ha":446,"x_min":0,"x_max":0,"o":""},"Í":{"ha":446,"x_min":0,"x_max":0,"o":""},"Î":{"ha":446,"x_min":0,"x_max":0,"o":""},"Ï":{"ha":446,"x_min":0,"x_max":0,"o":""},"Ð":{"ha":1029,"x_min":0,"x_max":0,"o":""},"Ñ":{"ha":1054,"x_min":0,"x_max":0,"o":""},"Ò":{"ha":1095,"x_min":0,"x_max":0,"o":""},"Ó":{"ha":1095,"x_min":0,"x_max":0,"o":""},"Ô":{"ha":1095,"x_min":0,"x_max":0,"o":""},"Õ":{"ha":1095,"x_min":0,"x_max":0,"o":""},"Ö":{"ha":1095,"x_min":0,"x_max":0,"o":""},"×":{"ha":688,"x_min":0,"x_max":0,"o":""},"Ø":{"ha":1095,"x_min":0,"x_max":0,"o":""},"Ù":{"ha":1018,"x_min":0,"x_max":0,"o":""},"Ú":{"ha":1018,"x_min":0,"x_max":0,"o":""},"Û":{"ha":1018,"x_min":0,"x_max":0,"o":""},"Ü":{"ha":1018,"x_min":0,"x_max":0,"o":""},"Ý":{"ha":836,"x_min":0,"x_max":0,"o":""},"Þ":{"ha":760,"x_min":0,"x_max":0,"o":""},"ß":{"ha":848,"x_min":0,"x_max":0,"o":""},"à":{"ha":625,"x_min":0,"x_max":0,"o":""},"á":{"ha":625,"x_min":0,"x_max":0,"o":""},"â":{"ha":625,"x_min":0,"x_max":0,"o":""},"ã":{"ha":625,"x_min":0,"x_max":0,"o":""},"ä":{"ha":625,"x_min":0,"x_max":0,"o":""},"å":{"ha":625,"x_min":0,"x_max":0,"o":""},"æ":{"ha":984,"x_min":0,"x_max":0,"o":""},"ç":{"ha":614,"x_min":0,"x_max":0,"o":""},"è":{"ha":616,"x_min":0,"x_max":0,"o":""},"é":{"ha":616,"x_min":0,"x_max":0,"o":""},"ê":{"ha":616,"x_min":0,"x_max":0,"o":""},"ë":{"ha":616,"x_min":0,"x_max":0,"o":""},"ì":{"ha":349,"x_min":0,"x_max":0,"o":""},"í":{"ha":349,"x_min":0,"x_max":0,"o":""},"î":{"ha":349,"x_min":0,"x_max":0,"o":""},"ï":{"ha":349,"x_min":0,"x_max":0,"o":""},"ð":{"ha":772,"x_min":0,"x_max":0,"o":""},"ñ":{"ha":751,"x_min":0,"x_max":0,"o":""},"ò":{"ha":685,"x_min":0,"x_max":0,"o":""},"ó":{"ha":685,"x_min":0,"x_max":0,"o":""},"ô":{"ha":685,"x_min":0,"x_max":0,"o":""},"õ":{"ha":685,"x_min":0,"x_max":0,"o":""},"ö":{"ha":685,"x_min":0,"x_max":0,"o":""},"÷":{"ha":688,"x_min":307,"x_max":450,"o":"m 378 599 q 328 620 349 599 q 307 671 307 641 q 328 721 307 700 q 378 742 349 742 q 429 721 408 742 q 450 671 450 700 q 429 620 450 641 q 378 599 408 599 m 378 326 q 328 347 349 326 q 307 398 307 368 q 328 448 307 427 q 378 469 349 469 q 429 448 408 469 q 450 398 450 427 q 429 347 450 368 q 378 326 408 326 z "},"ø":{"ha":685,"x_min":0,"x_max":0,"o":""},"ù":{"ha":718,"x_min":0,"x_max":0,"o":""},"ú":{"ha":718,"x_min":0,"x_max":0,"o":""},"û":{"ha":718,"x_min":0,"x_max":0,"o":""},"ü":{"ha":718,"x_min":0,"x_max":0,"o":""},"ý":{"ha":589,"x_min":0,"x_max":0,"o":""},"þ":{"ha":685,"x_min":0,"x_max":0,"o":""},"ÿ":{"ha":589,"x_min":0,"x_max":0,"o":""},"ı":{"ha":349,"x_min":0,"x_max":0,"o":""},"̀":{"ha":0,"x_min":0,"x_max":0,"o":""},"́":{"ha":0,"x_min":0,"x_max":0,"o":""},"̂":{"ha":0,"x_min":0,"x_max":0,"o":""},"̃":{"ha":0,"x_min":0,"x_max":0,"o":""},"̄":{"ha":0,"x_min":0,"x_max":0,"o":""},"̇":{"ha":0,"x_min":0,"x_max":0,"o":""},"̈":{"ha":0,"x_min":0,"x_max":0,"o":""},"̊":{"ha":0,"x_min":0,"x_max":0,"o":""},"̌":{"ha":0,"x_min":0,"x_max":0,"o":""},"̧":{"ha":0,"x_min":0,"x_max":0,"o":""},"–":{"ha":751,"x_min":0,"x_max":0,"o":""},"—":{"ha":1389,"x_min":0,"x_max":0,"o":""},"‘":{"ha":378,"x_min":0,"x_max":0,"o":""},"’":{"ha":378,"x_min":0,"x_max":0,"o":""},"‚":{"ha":378,"x_min":0,"x_max":0,"o":""},"“":{"ha":617,"x_min":0,"x_max":0,"o":""},"”":{"ha":617,"x_min":0,"x_max":0,"o":""},"„":{"ha":617,"x_min":0,"x_max":0,"o":""},"†":{"ha":688,"x_min":0,"x_max":0,"o":""},"‡":{"ha":688,"x_min":0,"x_max":0,"o":""},"•":{"ha":694,"x_min":0,"x_max":0,"o":""},"…":{"ha":1389,"x_min":90,"x_max":1208,"o":"m 90 210 l 90 210 l 281 210 l 281 -2 l 90 -2 l 90 210 m 553 210 l 553 210 l 745 210 l 745 -2 l 553 -2 l 553 210 m 1016 210 l 1016 210 l 1208 210 l 1208 -2 l 1016 -2 l 1016 210 z "},"‹":{"ha":428,"x_min":0,"x_max":0,"o":""},"›":{"ha":428,"x_min":0,"x_max":0,"o":""},"⁄":{"ha":232,"x_min":0,"x_max":0,"o":""},"₣":{"ha":688,"x_min":0,"x_max":0,"o":""},"₤":{"ha":688,"x_min":0,"x_max":0,"o":""},"₧":{"ha":1375,"x_min":0,"x_max":0,"o":""},"€":{"ha":688,"x_min":0,"x_max":0,"o":""},"№":{"ha":1540,"x_min":0,"x_max":0,"o":""},"™":{"ha":1015,"x_min":0,"x_max":0,"o":""},"∂":{"ha":688,"x_min":0,"x_max":0,"o":""},"∆":{"ha":733,"x_min":0,"x_max":0,"o":""},"∏":{"ha":1027,"x_min":0,"x_max":0,"o":""},"∑":{"ha":818,"x_min":0,"x_max":0,"o":""},"−":{"ha":688,"x_min":0,"x_max":0,"o":""},"√":{"ha":688,"x_min":0,"x_max":0,"o":""},"∞":{"ha":688,"x_min":0,"x_max":0,"o":""},"∫":{"ha":451,"x_min":0,"x_max":0,"o":""},"≈":{"ha":688,"x_min":0,"x_max":0,"o":""},"≤":{"ha":917,"x_min":136,"x_max":917,"o":"m 917 8 l 136 286 l 136 488 l 917 766 l 917 564 l 420 387 l 917 211 l 917 8 z "},"≥":{"ha":917,"x_min":136,"x_max":917,"o":"m 136 8 l 136 211 l 633 387 l 136 564 l 136 766 l 917 488 l 917 286 l 136 8 z "},"ﬁ":{"ha":728,"x_min":0,"x_max":0,"o":""},"ﬂ":{"ha":733,"x_min":0,"x_max":0,"o":""}}}
